<svg width="33" height="31" viewBox="0 0 33 31" fill="none" xmlns="http://www.w3.org/2000/svg">
<path d="M13.8146 29.6834C14.6825 29.6834 15.386 28.9798 15.386 28.112C15.386 27.2441 14.6825 26.5405 13.8146 26.5405C12.9467 26.5405 12.2432 27.2441 12.2432 28.112C12.2432 28.9798 12.9467 29.6834 13.8146 29.6834Z" fill="white" stroke="white" stroke-width="1.5" stroke-linecap="round" stroke-linejoin="round"/>
<path d="M24.8146 29.6834C25.6825 29.6834 26.386 28.9798 26.386 28.112C26.386 27.2441 25.6825 26.5405 24.8146 26.5405C23.9467 26.5405 23.2432 27.2441 23.2432 28.112C23.2432 28.9798 23.9467 29.6834 24.8146 29.6834Z" fill="white" stroke="white" stroke-width="1.5" stroke-linecap="round" stroke-linejoin="round"/>
<path d="M1.24316 1.39746H6.1056L9.75243 22.0628H29.2022" stroke="white" stroke-width="2" stroke-linecap="round" stroke-linejoin="round"/>
<path d="M9.10014 17.0619L28.7037 17.1996C28.8442 17.1996 28.9805 17.151 29.0892 17.0619C29.198 16.9729 29.2725 16.8489 29.3001 16.711L31.4882 5.77054C31.5058 5.68233 31.5037 5.59129 31.4819 5.504C31.4601 5.41671 31.4192 5.33535 31.3621 5.26579C31.3051 5.19623 31.2333 5.1402 31.1519 5.10175C31.0706 5.06331 30.9817 5.04339 30.8918 5.04346L7.11522 5.04346" stroke="white" stroke-width="2" stroke-linecap="round" stroke-linejoin="round"/>
</svg>
