<svg width="25" height="23" viewBox="0 0 25 23" fill="none" xmlns="http://www.w3.org/2000/svg">
<path d="M17.3396 2.10221C18.652 2.10596 19.9095 2.60655 20.8375 3.49464C21.7655 4.38274 22.2886 5.58618 22.2925 6.84213V16.321C22.2886 17.5769 21.7655 18.7803 20.8375 19.6684C19.9095 20.5565 18.652 21.0571 17.3396 21.0609H7.43478C6.12238 21.0571 4.86486 20.5565 3.93685 19.6684C3.00884 18.7803 2.48575 17.5769 2.48184 16.321V6.84213C2.48575 5.58618 3.00884 4.38274 3.93685 3.49464C4.86486 2.60655 6.12238 2.10596 7.43478 2.10221H17.3396ZM17.3396 0.206543H7.43478C3.62111 0.206543 0.500977 3.19248 0.500977 6.84213V16.321C0.500977 19.9706 3.62111 22.9565 7.43478 22.9565H17.3396C21.1533 22.9565 24.2734 19.9706 24.2734 16.321V6.84213C24.2734 3.19248 21.1533 0.206543 17.3396 0.206543Z" fill="white"/>
<path d="M18.8256 6.84229C18.5318 6.84229 18.2445 6.75889 18.0002 6.60266C17.7558 6.44642 17.5654 6.22435 17.453 5.96454C17.3405 5.70472 17.3111 5.41883 17.3684 5.14302C17.4257 4.8672 17.5672 4.61385 17.775 4.41499C17.9828 4.21614 18.2476 4.08072 18.5358 4.02586C18.824 3.97099 19.1227 3.99915 19.3942 4.10677C19.6657 4.21439 19.8977 4.39663 20.061 4.63046C20.2243 4.86429 20.3114 5.13919 20.3114 5.42041C20.3118 5.60725 20.2737 5.79232 20.1992 5.96501C20.1246 6.1377 20.0152 6.29461 19.8772 6.42672C19.7391 6.55884 19.5752 6.66356 19.3947 6.73487C19.2143 6.80618 19.0209 6.84269 18.8256 6.84229ZM12.3874 7.78986C13.1711 7.78986 13.9372 8.01225 14.5887 8.4289C15.2403 8.84556 15.7482 9.43776 16.0481 10.1306C16.348 10.8235 16.4264 11.5859 16.2736 12.3215C16.1207 13.057 15.7433 13.7326 15.1892 14.2629C14.635 14.7932 13.929 15.1544 13.1604 15.3007C12.3918 15.447 11.5952 15.3719 10.8712 15.0849C10.1472 14.7979 9.52833 14.3119 9.09296 13.6883C8.65758 13.0648 8.4252 12.3317 8.4252 11.5817C8.42632 10.5764 8.84413 9.61253 9.58695 8.90165C10.3298 8.19078 11.3369 7.79094 12.3874 7.78986ZM12.3874 5.8942C11.212 5.8942 10.063 6.22777 9.08563 6.85272C8.10829 7.47767 7.34655 8.36593 6.89673 9.40519C6.44691 10.4444 6.32922 11.588 6.55853 12.6913C6.78785 13.7945 7.35388 14.808 8.18503 15.6034C9.01619 16.3988 10.0752 16.9405 11.228 17.1599C12.3809 17.3794 13.5758 17.2667 14.6618 16.8363C15.7477 16.4058 16.6759 15.6768 17.329 14.7415C17.982 13.8062 18.3305 12.7066 18.3305 11.5817C18.3305 10.0733 17.7044 8.62664 16.5899 7.56003C15.4753 6.49342 13.9637 5.8942 12.3874 5.8942Z" fill="white"/>
</svg>
