<svg width="35" height="35" viewBox="0 0 35 35" fill="none" xmlns="http://www.w3.org/2000/svg">
<circle cx="17.1574" cy="17.7993" r="16.9523" fill="#292E36"/>
<circle cx="17.1575" cy="17.7994" r="15.136" fill="#E1B168"/>
<path d="M12.7255 22.5802C13.4268 22.2792 14.039 21.8218 14.562 21.2078C15.085 20.5939 15.4 19.9679 15.507 19.3299C15.5664 18.9928 15.5961 18.7039 15.5961 18.4632C15.5961 18.1863 15.5664 17.9576 15.507 17.777C14.9483 18.3669 14.241 18.6618 13.3852 18.6618C12.5294 18.6618 11.834 18.409 11.2991 17.9034C10.7642 17.3978 10.4968 16.6996 10.4968 15.8088C10.4968 14.9662 10.7821 14.28 11.3526 13.7503C11.9113 13.2206 12.6245 12.9558 13.4922 12.9558C14.6808 12.9558 15.5486 13.3892 16.0953 14.2559C16.345 14.6291 16.5411 15.0865 16.6837 15.6282C16.8264 16.182 16.8977 16.7478 16.8977 17.3256C16.8977 18.5896 16.5768 19.7452 15.9349 20.7925C15.293 21.8398 14.3361 22.6584 13.0643 23.2483L12.7255 22.5802ZM20.2497 22.5802C20.951 22.2792 21.5632 21.8218 22.0862 21.2078C22.6092 20.5939 22.9242 19.9679 23.0311 19.3299C23.0906 18.9928 23.1203 18.7039 23.1203 18.4632C23.1203 18.1863 23.0906 17.9576 23.0311 17.777C22.4725 18.3669 21.7652 18.6618 20.9094 18.6618C20.0536 18.6618 19.3582 18.409 18.8233 17.9034C18.2884 17.3978 18.021 16.6996 18.021 15.8088C18.021 14.9662 18.3062 14.28 18.8768 13.7503C19.4355 13.2206 20.1487 12.9558 21.0164 12.9558C22.205 12.9558 23.0728 13.3892 23.6195 14.2559C23.8692 14.6291 24.0653 15.0865 24.2079 15.6282C24.3506 16.182 24.4219 16.7478 24.4219 17.3256C24.4219 18.5896 24.1009 19.7452 23.4591 20.7925C22.8172 21.8398 21.8603 22.6584 20.5885 23.2483L20.2497 22.5802Z" fill="#292E36"/>
</svg>
