<svg width="25" height="25" viewBox="0 0 25 25" fill="none" xmlns="http://www.w3.org/2000/svg">
<path d="M12.5937 0.581543C5.92406 0.581543 0.516113 5.95356 0.516113 12.5789C0.516113 17.4903 3.49237 21.7108 7.74648 23.5693C7.71413 22.7337 7.74109 21.7268 7.95676 20.8163C8.18861 19.8415 9.5096 14.2767 9.5096 14.2767C9.5096 14.2767 9.12139 13.5108 9.12139 12.3807C9.12139 10.6025 10.1566 9.27425 11.4506 9.27425C12.5506 9.27425 13.0789 10.0937 13.0789 11.0738C13.0789 12.1718 12.3726 13.8107 12.0114 15.3318C11.7094 16.6065 12.653 17.6402 13.9201 17.6402C16.2062 17.6402 17.7482 14.7212 17.7482 11.2613C17.7482 8.63153 15.9636 6.6659 12.7231 6.6659C9.06208 6.6659 6.77596 9.38136 6.77596 12.4128C6.77596 13.4572 7.08869 14.1964 7.57395 14.7641C7.79501 15.0265 7.82736 15.1337 7.74648 15.4336C7.68717 15.6532 7.55777 16.1834 7.49846 16.3977C7.41759 16.7029 7.16956 16.8101 6.89458 16.6976C5.20696 16.012 4.41976 14.1803 4.41976 12.1129C4.41976 8.70652 7.31514 4.61993 13.052 4.61993C17.662 4.61993 20.6975 7.93526 20.6975 11.4916C20.6975 16.1995 18.061 19.713 14.1789 19.713C12.8741 19.713 11.6501 19.0114 11.2296 18.2187C11.2296 18.2187 10.5286 20.9823 10.3777 21.5179C10.1243 22.4445 9.62282 23.3657 9.16452 24.0888C10.2762 24.4146 11.4292 24.5805 12.5883 24.5815C19.2579 24.5815 24.6659 19.2095 24.6659 12.5842C24.6659 5.95891 19.2633 0.581543 12.5937 0.581543Z" fill="white"/>
</svg>
