<svg width="26" height="21" viewBox="0 0 26 21" fill="none" xmlns="http://www.w3.org/2000/svg">
<path d="M25.5164 2.85597C24.5609 3.26853 23.55 3.54034 22.5156 3.6628C23.6027 3.03019 24.4202 2.02517 24.8149 0.836239C23.7871 1.4335 22.6645 1.85257 21.4952 2.0755C21.0028 1.56267 20.4107 1.1547 19.7547 0.876394C19.0987 0.598083 18.3927 0.455242 17.6794 0.456552C14.7917 0.456552 12.4548 2.74522 12.4548 5.56651C12.4527 5.95894 12.498 6.3502 12.5896 6.73194C10.5189 6.63547 8.49123 6.11051 6.63637 5.19065C4.78151 4.27079 3.14029 2.97628 1.81769 1.38995C1.35369 2.16732 1.1083 3.05427 1.10717 3.95811C1.10717 5.72999 2.03737 7.2962 3.44196 8.21378C2.60978 8.19415 1.79465 7.97526 1.06578 7.57569V7.63897C1.06578 10.1175 2.86994 12.1794 5.25779 12.6487C4.80876 12.7677 4.34604 12.828 3.88132 12.828C3.55158 12.8286 3.22258 12.7968 2.89912 12.7331C3.56294 14.7634 5.49498 16.2399 7.78361 16.2821C5.92394 17.7064 3.64074 18.4763 1.29289 18.4706C0.876139 18.47 0.459775 18.4453 0.0458984 18.3968C2.43438 19.9125 5.2108 20.7142 8.04468 20.7065C17.6683 20.7065 22.9258 12.9177 22.9258 6.16241C22.9258 5.94093 22.92 5.71944 22.9093 5.50323C23.9298 4.78186 24.8126 3.8854 25.5164 2.85597Z" fill="white"/>
</svg>
