<svg width="125" height="127" viewBox="0 0 125 127" fill="none" xmlns="http://www.w3.org/2000/svg">
<path d="M49.554 4.84394C52.255 7.26353 56.4863 6.65516 58.3963 3.57262C60.2839 0.526012 64.7161 0.526012 66.6038 3.57262C68.5137 6.65516 72.745 7.26353 75.446 4.84394C78.1155 2.45256 82.3681 3.70125 83.321 7.15627C84.2851 10.652 88.1736 12.4278 91.4469 10.8672C94.682 9.3248 98.4106 11.721 98.3515 15.3045C98.2917 18.9303 101.522 21.7297 105.103 21.1545C108.641 20.586 111.544 23.9356 110.477 27.3573C109.399 30.8194 111.71 34.4156 115.307 34.8724C118.863 35.3238 120.704 39.3555 118.717 42.3382C116.706 45.356 117.91 49.4577 121.233 50.9095C124.518 52.3443 125.148 56.7314 122.401 59.0334C119.622 61.3626 119.622 65.6374 122.401 67.9666C125.148 70.2686 124.518 74.6557 121.233 76.0905C117.91 77.5423 116.706 81.644 118.717 84.6618C120.704 87.6445 118.863 91.6762 115.307 92.1276C111.71 92.5844 109.399 96.1806 110.477 99.6427C111.544 103.064 108.641 106.414 105.103 105.845C101.522 105.27 98.2917 108.07 98.3515 111.695C98.4106 115.279 94.682 117.675 91.4469 116.133C88.1736 114.572 84.2851 116.348 83.321 119.844C82.3681 123.299 78.1155 124.547 75.446 122.156C72.745 119.736 68.5137 120.345 66.6038 123.427C64.7161 126.474 60.2839 126.474 58.3962 123.427C56.4863 120.345 52.255 119.736 49.554 122.156C46.8845 124.547 42.6319 123.299 41.679 119.844C40.7149 116.348 36.8264 114.572 33.5531 116.133C30.318 117.675 26.5894 115.279 26.6485 111.695C26.7083 108.07 23.4776 105.27 19.8973 105.845C16.3587 106.414 13.4562 103.064 14.5225 99.6427C15.6014 96.1806 13.2903 92.5844 9.6929 92.1276C6.13745 91.6762 4.29625 87.6445 6.28338 84.6618C8.29394 81.644 7.08959 77.5423 3.76662 76.0905C0.48238 74.6557 -0.148386 70.2686 2.59857 67.9666C5.37792 65.6374 5.37792 61.3626 2.59858 59.0334C-0.148386 56.7314 0.482379 52.3443 3.76662 50.9095C7.08959 49.4577 8.29394 45.356 6.28338 42.3382C4.29625 39.3555 6.13745 35.3238 9.6929 34.8724C13.2903 34.4156 15.6014 30.8194 14.5225 27.3573C13.4562 23.9356 16.3587 20.586 19.8973 21.1545C23.4776 21.7297 26.7083 18.9303 26.6485 15.3045C26.5894 11.721 30.318 9.3248 33.5531 10.8672C36.8264 12.4278 40.7149 10.652 41.679 7.15626C42.6319 3.70125 46.8845 2.45256 49.554 4.84394Z" fill="white" stroke="black"/>
</svg>
